<svg width="22" height="22" viewBox="0 0 22 22" fill="none" xmlns="http://www.w3.org/2000/svg">
<g clip-path="url(#clip0_234_25319)">
<path d="M11.0003 12.9818L9.01834 10.9998L11.0003 9.01786L12.9823 10.9998L11.0003 12.9818ZM8.89447 7.15975L6.41699 4.68227L9.58816 1.5111C9.78636 1.3129 10.0093 1.16425 10.2571 1.06515C10.5048 0.966053 10.7526 0.916504 11.0003 0.916504C11.2481 0.916504 11.4958 0.966053 11.7436 1.06515C11.9913 1.16425 12.2143 1.3129 12.4125 1.5111L15.5837 4.68227L13.1062 7.15975L11.0003 5.05389L8.89447 7.15975ZM4.68276 15.5832L1.51159 12.412C1.31339 12.2138 1.16474 11.9908 1.06564 11.7431C0.966542 11.4953 0.916992 11.2476 0.916992 10.9998C0.916992 10.7521 0.966542 10.5043 1.06564 10.2566C1.16474 10.0088 1.31339 9.78587 1.51159 9.58768L4.68276 6.4165L7.16024 8.89398L5.05438 10.9998L7.16024 13.1057L4.68276 15.5832ZM17.3179 15.5832L14.8404 13.1057L16.9463 10.9998L14.8404 8.89398L17.3179 6.4165L20.4891 9.58768C20.6873 9.78587 20.8359 10.0088 20.935 10.2566C21.0341 10.5043 21.0837 10.7521 21.0837 10.9998C21.0837 11.2476 21.0341 11.4953 20.935 11.7431C20.8359 11.9908 20.6873 12.2138 20.4891 12.412L17.3179 15.5832ZM9.58816 20.4886L6.41699 17.3174L8.89447 14.8399L11.0003 16.9458L13.1062 14.8399L15.5837 17.3174L12.4125 20.4886C12.2143 20.6868 11.9913 20.8354 11.7436 20.9345C11.4958 21.0336 11.2481 21.0832 11.0003 21.0832C10.7526 21.0832 10.5048 21.0336 10.2571 20.9345C10.0093 20.8354 9.78636 20.6868 9.58816 20.4886Z" fill="#ACACAC"/>
</g>
<defs>
<clipPath id="clip0_234_25319">
<rect width="22" height="22" fill="white"/>
</clipPath>
</defs>
</svg>
