<svg width="22" height="22" viewBox="0 0 22 22" fill="none" xmlns="http://www.w3.org/2000/svg">
<path d="M11 1.375C11.8487 1.375 12.6626 1.66473 13.2627 2.18046C13.8629 2.69618 14.2 3.39565 14.2 4.125V9.625H7.8V4.125C7.8 3.39565 8.13714 2.69618 8.73726 2.18046C9.33737 1.66473 10.1513 1.375 11 1.375ZM15.8 9.625V4.125C15.8 3.03098 15.2943 1.98177 14.3941 1.20818C13.4939 0.434597 12.273 0 11 0C9.72696 0 8.50606 0.434597 7.60589 1.20818C6.70571 1.98177 6.2 3.03098 6.2 4.125V9.625C5.35131 9.625 4.53737 9.91473 3.93726 10.4305C3.33714 10.9462 3 11.6457 3 12.375V19.25C3 19.9793 3.33714 20.6788 3.93726 21.1945C4.53737 21.7103 5.35131 22 6.2 22H15.8C16.6487 22 17.4626 21.7103 18.0627 21.1945C18.6629 20.6788 19 19.9793 19 19.25V12.375C19 11.6457 18.6629 10.9462 18.0627 10.4305C17.4626 9.91473 16.6487 9.625 15.8 9.625ZM6.2 11H15.8C16.2243 11 16.6313 11.1449 16.9314 11.4027C17.2314 11.6606 17.4 12.0103 17.4 12.375V19.25C17.4 19.6147 17.2314 19.9644 16.9314 20.2223C16.6313 20.4801 16.2243 20.625 15.8 20.625H6.2C5.77565 20.625 5.36869 20.4801 5.06863 20.2223C4.76857 19.9644 4.6 19.6147 4.6 19.25V12.375C4.6 12.0103 4.76857 11.6606 5.06863 11.4027C5.36869 11.1449 5.77565 11 6.2 11Z" fill="#ACACAC"/>
</svg>
