<svg width="39" height="39" viewBox="0 0 39 39" fill="none" xmlns="http://www.w3.org/2000/svg">
<path d="M15.8735 6.34919H11.429C9.65122 6.34919 8.76232 6.34919 8.08295 6.69522C7.48564 6.99958 7 7.48521 6.69564 8.08253C6.34961 8.7619 6.34961 9.6508 6.34961 11.4286V26.6668C6.34961 28.4446 6.34961 29.3335 6.69564 30.0128C7 30.6102 7.48564 31.0958 8.08295 31.4002C8.76074 31.7462 9.64963 31.7462 11.4242 31.7462H26.672C28.4466 31.7462 29.3339 31.7462 30.0117 31.4002C30.6101 31.0954 31.0958 30.6097 31.4006 30.0128C31.7466 29.3335 31.7466 28.4462 31.7466 26.6715V22.2223M25.3974 7.9365L15.8735 17.4604V22.2223H20.6354L30.1593 12.6984M25.3974 7.9365L30.1593 3.17456L34.9212 7.9365L30.1593 12.6984M25.3974 7.9365L30.1593 12.6984" stroke="black" stroke-width="2" stroke-linecap="round" stroke-linejoin="round"/>
</svg>
