<svg width="48" height="48" viewBox="0 0 48 48" fill="none" xmlns="http://www.w3.org/2000/svg">
<path d="M44 19C44 19 35.044 31 24 31C12.956 31 4 19 4 19C4 19 12.956 7 24 7C35.044 7 44 19 44 19Z" stroke="black" stroke-width="3" stroke-miterlimit="10" stroke-linecap="round" stroke-linejoin="round"/>
<path d="M24 25C25.5913 25 27.1174 24.3679 28.2426 23.2426C29.3679 22.1174 30 20.5913 30 19C30 17.4087 29.3679 15.8826 28.2426 14.7574C27.1174 13.6321 25.5913 13 24 13C22.4087 13 20.8826 13.6321 19.7574 14.7574C18.6321 15.8826 18 17.4087 18 19C18 20.5913 18.6321 22.1174 19.7574 23.2426C20.8826 24.3679 22.4087 25 24 25Z" stroke="black" stroke-width="3" stroke-miterlimit="10" stroke-linecap="round" stroke-linejoin="round"/>
</svg>
