<svg width="16" height="20" viewBox="0 0 16 20" fill="none" xmlns="http://www.w3.org/2000/svg">
<path d="M8.16554 18.7302C8.14616 18.8399 8.13682 18.951 8.13764 19.0624C8.13764 19.6253 8.52825 20 9.06766 20C9.56243 20 9.9828 19.6825 10.1 19.1196L11.1304 14.1308H13.3699C14.153 14.1308 14.5176 13.6989 14.5176 13.1212C14.5176 12.5453 14.1679 12.143 13.3699 12.143H11.5378L12.4976 7.4845H14.8505C15.6503 7.4845 16 7.06554 16 6.47492C16 5.89723 15.6503 5.50779 14.8505 5.50779H12.9049L13.7903 1.25536C13.8086 1.15545 13.8185 1.05421 13.82 0.952674C13.8215 0.827195 13.7977 0.702687 13.75 0.586469C13.7023 0.470252 13.6317 0.364673 13.5423 0.27594C13.4528 0.187207 13.3464 0.117112 13.2293 0.0697771C13.1122 0.0224421 12.9867 -0.00117748 12.8603 0.000307628C12.6261 -0.00412557 12.3978 0.0727633 12.2147 0.217681C12.0316 0.362598 11.9054 0.566434 11.8577 0.793946L10.8849 5.50779H6.72774L7.61497 1.25536C7.62985 1.18154 7.64287 1.03757 7.64287 0.952674C7.64442 0.826088 7.62021 0.700493 7.5717 0.583405C7.5232 0.466317 7.45138 0.36014 7.36057 0.271229C7.26975 0.182317 7.16179 0.112498 7.04314 0.0659474C6.9245 0.0193967 6.79762 -0.00292857 6.67008 0.000307628C6.43847 -0.000680313 6.21364 0.0777829 6.03365 0.222412C5.85366 0.367041 5.72958 0.568948 5.6824 0.793946L4.70588 5.50779H2.63009C1.83027 5.50779 1.48245 5.91384 1.48245 6.48969C1.48245 7.06554 1.83027 7.4845 2.63009 7.4845H4.31528L3.35736 12.1411H1.13276C0.349687 12.1411 0 12.5453 0 13.1212C0 13.697 0.349686 14.1308 1.13462 14.1308H2.95001L1.99024 18.7302C1.97535 18.804 1.96233 18.9609 1.96233 19.0624C1.96233 19.6253 2.35294 20 2.89235 20C3.38526 20 3.80749 19.6825 3.92281 19.1196L4.95513 14.1308H9.12532L8.16554 18.7302ZM6.30551 7.45497H10.5203L9.56243 12.1854H5.31783L6.30551 7.45497Z" fill="#ACACAC"/>
</svg>
