<svg width="20" height="12" viewBox="0 0 20 12" fill="none" xmlns="http://www.w3.org/2000/svg">
<path d="M16 12H14.36C13.19 12 12.08 11.44 11.38 10.51C10.72 9.63 9.28 9.63 8.62 10.51C8.27116 10.9706 7.82086 11.3447 7.30404 11.6031C6.78723 11.8615 6.21781 11.9973 5.64 12H4C1.79 12 0 10.21 0 8V3C0 1.35 1.35 0 3 0H17C18.65 0 20 1.35 20 3V8C20 10.21 18.21 12 16 12ZM10 7.82C11.18 7.82 12.27 8.36 12.98 9.31C13.3 9.74 13.82 10 14.36 10H16C17.1 10 18 9.1 18 8V3C18 2.45 17.55 2 17 2H3C2.45 2 2 2.45 2 3V8C2 9.1 2.9 10 4 10H5.64C6.18 10 6.7 9.74 7.02 9.31C7.36506 8.84534 7.81459 8.46836 8.33226 8.20952C8.84993 7.95069 9.42123 7.81725 10 7.82Z" fill="#ACACAC"/>
</svg>
