<svg width="31" height="31" viewBox="0 0 31 31" fill="none" xmlns="http://www.w3.org/2000/svg">
<path d="M11.2917 15.25H19.2083M15.25 11.2917V19.2083M15.25 29.5C18.0684 29.5 20.8235 28.6643 23.1669 27.0984C25.5103 25.5326 27.3367 23.3071 28.4153 20.7032C29.4938 18.0994 29.776 15.2342 29.2262 12.47C28.6764 9.70574 27.3192 7.16663 25.3263 5.17373C23.3334 3.18084 20.7943 1.82366 18.03 1.27382C15.2658 0.723977 12.4006 1.00617 9.79676 2.08472C7.19291 3.16327 4.96737 4.98973 3.40156 7.33313C1.83575 9.67653 1 12.4316 1 15.25C1 17.53 1.53517 19.6833 2.48833 21.5944C3.20558 23.0368 2.20808 24.9828 1.82808 26.403C1.7439 26.7171 1.74388 27.0479 1.82804 27.362C1.9122 27.6761 2.07757 27.9625 2.30752 28.1925C2.53747 28.4224 2.8239 28.5878 3.13802 28.672C3.45214 28.7561 3.78289 28.7561 4.097 28.6719C5.51725 28.2919 7.46317 27.2944 8.90558 28.0133C10.8772 28.9922 13.0487 29.5011 15.25 29.5Z" stroke="black" stroke-width="2" stroke-linecap="round" stroke-linejoin="round"/>
</svg>
