<svg width="22" height="22" viewBox="0 0 22 22" fill="none" xmlns="http://www.w3.org/2000/svg">
<g clip-path="url(#clip0_234_25290)">
<path d="M5.02392 1.82592C4.94275 1.7215 4.84029 1.63555 4.72335 1.57378C4.60641 1.512 4.47766 1.47582 4.34566 1.46762C4.21366 1.45943 4.08142 1.47942 3.95774 1.52626C3.83406 1.5731 3.72176 1.64572 3.6283 1.73929L2.20655 3.16242C1.54242 3.82792 1.29767 4.76979 1.5878 5.59617C2.7933 9.01594 4.75188 12.1211 7.3188 14.6822C9.87986 17.2491 12.985 19.2077 16.4048 20.4132C17.2312 20.7033 18.173 20.4585 18.8385 19.7944L20.2603 18.3727C20.3539 18.2792 20.4265 18.1669 20.4733 18.0432C20.5202 17.9195 20.5402 17.7873 20.532 17.6553C20.5238 17.5233 20.4876 17.3946 20.4258 17.2776C20.364 17.1607 20.2781 17.0582 20.1737 16.977L17.0015 14.5103C16.8899 14.424 16.7602 14.364 16.622 14.335C16.4839 14.3059 16.341 14.3085 16.204 14.3425L13.1928 15.0947C12.7908 15.1944 12.3699 15.1888 11.9708 15.0782C11.5716 14.9676 11.2078 14.7559 10.9144 14.4635L7.53742 11.0852C7.2448 10.792 7.03282 10.4282 6.92201 10.029C6.8112 9.62988 6.80532 9.20888 6.90492 8.80679L7.65842 5.79554C7.69246 5.65857 7.69506 5.51567 7.66601 5.37755C7.63695 5.23944 7.57701 5.10969 7.49067 4.99804L5.02392 1.82592ZM2.59017 0.702542C2.83079 0.461848 3.11986 0.275097 3.43819 0.154689C3.75652 0.0342815 4.09682 -0.0170271 4.4365 0.00417027C4.77617 0.0253677 5.10746 0.118586 5.40835 0.277635C5.70923 0.436685 5.97284 0.657926 6.18167 0.926667L8.64842 4.09742C9.1008 4.67904 9.2603 5.43667 9.08155 6.15167L8.32942 9.16292C8.29081 9.3189 8.29304 9.4822 8.33591 9.63706C8.37878 9.79192 8.46084 9.93313 8.57417 10.047L11.9525 13.4254C12.0666 13.539 12.208 13.6212 12.3632 13.664C12.5183 13.7069 12.6819 13.709 12.838 13.6702L15.8479 12.918C16.2008 12.8303 16.569 12.8237 16.9248 12.8988C17.2806 12.9738 17.6147 13.1285 17.9022 13.3512L21.0729 15.8179C22.2128 16.7048 22.3173 18.3892 21.297 19.408L19.8753 20.8298C18.8578 21.8473 17.337 22.2942 15.9194 21.795C12.2903 20.5198 8.99566 18.4425 6.28067 15.7175C3.55593 13.0029 1.47855 9.70875 0.203171 6.08017C-0.294579 4.66392 0.152296 3.14179 1.1698 2.12429L2.59017 0.702542Z" fill="#ACACAC"/>
</g>
<defs>
<clipPath id="clip0_234_25290">
<rect width="22" height="22" fill="white"/>
</clipPath>
</defs>
</svg>
