<svg width="22" height="22" viewBox="0 0 22 22" fill="none" xmlns="http://www.w3.org/2000/svg">
<path d="M14.2344 15.3413C13.8373 15.4014 13.4403 15.4375 13.0312 15.4375C12.6222 15.4375 12.2252 15.4014 11.8281 15.3413V11.1183L8.82031 14.102C8.21875 13.6328 7.61719 13.0312 7.14797 12.4297L10.1317 9.42188H5.90875C5.84859 9.02484 5.8125 8.62781 5.8125 8.21875C5.8125 7.80969 5.84859 7.41266 5.90875 7.01562H10.1317L7.14797 4.00781C7.37656 3.70703 7.61719 3.40625 7.93 3.1175C8.21875 2.80469 8.51953 2.56406 8.82031 2.33547L11.8281 5.31922V1.09625C12.2252 1.03609 12.6222 1 13.0312 1C13.4403 1 13.8373 1.03609 14.2344 1.09625V5.31922L17.2422 2.33547C17.8438 2.80469 18.4453 3.40625 18.9145 4.00781L15.9308 7.01562H20.1537C20.2139 7.41266 20.25 7.80969 20.25 8.21875C20.25 8.62781 20.2139 9.02484 20.1537 9.42188H15.9308L18.9145 12.4297C18.6859 12.7305 18.4453 13.0312 18.1325 13.32C17.8438 13.6328 17.543 13.8734 17.2422 14.102L14.2344 11.1183V15.3413ZM1 17.8438C1 17.2056 1.25351 16.5935 1.70477 16.1423C2.15603 15.691 2.76807 15.4375 3.40625 15.4375C4.04443 15.4375 4.65647 15.691 5.10773 16.1423C5.55898 16.5935 5.8125 17.2056 5.8125 17.8438C5.8125 18.4819 5.55898 19.094 5.10773 19.5452C4.65647 19.9965 4.04443 20.25 3.40625 20.25C2.76807 20.25 2.15603 19.9965 1.70477 19.5452C1.25351 19.094 1 18.4819 1 17.8438Z" fill="#ACACAC"/>
</svg>
