<svg width="20" height="16" viewBox="0 0 20 16" fill="none" xmlns="http://www.w3.org/2000/svg">
<path d="M13.5 6H17.5C18.1 6 18.5 5.6 18.5 5V1C18.5 0.4 18.1 0 17.5 0H13.5C12.9 0 12.5 0.4 12.5 1V5C12.5 5.6 12.9 6 13.5 6ZM5.5 10H1.5C0.9 10 0.5 10.4 0.5 11V15C0.5 15.6 0.9 16 1.5 16H5.5C6.1 16 6.5 15.6 6.5 15V11C6.5 10.4 6.1 10 5.5 10ZM15.5 7.4L12 11L13.1 12.1L14.8 10.4C14.7 11.5 14.5 12.7 13.9 13.3C13.6 13.6 13.2 13.8 12.6 13.8H8.1V15.3H12.5C13.4 15.3 14.2 15 14.8 14.4C15.8 13.4 16.1 11.7 16.2 10.4L18 12.2L19.1 11.1L15.5 7.4ZM4.3 5.7C4.4 4.6 4.6 3.4 5.2 2.8C5.6 2.4 6 2.2 6.5 2.2H11V0.8H6.5C5.6 0.8 4.8 1.1 4.2 1.7C3.2 2.7 2.9 4.4 2.8 5.7L1 4L0 5L3.5 8.6L7 5L6 4L4.3 5.7Z" fill="#ACACAC"/>
</svg>
