<svg width="26" height="26" viewBox="0 0 26 26" fill="none" xmlns="http://www.w3.org/2000/svg">
<path d="M8.9375 8.9375C9.15299 8.9375 9.35965 9.0231 9.51202 9.17548C9.6644 9.32785 9.75 9.53451 9.75 9.75V19.5C9.75 19.7155 9.6644 19.9222 9.51202 20.0745C9.35965 20.2269 9.15299 20.3125 8.9375 20.3125C8.72201 20.3125 8.51535 20.2269 8.36298 20.0745C8.2106 19.9222 8.125 19.7155 8.125 19.5V9.75C8.125 9.53451 8.2106 9.32785 8.36298 9.17548C8.51535 9.0231 8.72201 8.9375 8.9375 8.9375ZM13 8.9375C13.2155 8.9375 13.4222 9.0231 13.5745 9.17548C13.7269 9.32785 13.8125 9.53451 13.8125 9.75V19.5C13.8125 19.7155 13.7269 19.9222 13.5745 20.0745C13.4222 20.2269 13.2155 20.3125 13 20.3125C12.7845 20.3125 12.5778 20.2269 12.4255 20.0745C12.2731 19.9222 12.1875 19.7155 12.1875 19.5V9.75C12.1875 9.53451 12.2731 9.32785 12.4255 9.17548C12.5778 9.0231 12.7845 8.9375 13 8.9375ZM17.875 9.75C17.875 9.53451 17.7894 9.32785 17.637 9.17548C17.4847 9.0231 17.278 8.9375 17.0625 8.9375C16.847 8.9375 16.6403 9.0231 16.488 9.17548C16.3356 9.32785 16.25 9.53451 16.25 9.75V19.5C16.25 19.7155 16.3356 19.9222 16.488 20.0745C16.6403 20.2269 16.847 20.3125 17.0625 20.3125C17.278 20.3125 17.4847 20.2269 17.637 20.0745C17.7894 19.9222 17.875 19.7155 17.875 19.5V9.75Z" fill="#D60505"/>
<path d="M23.5625 4.875C23.5625 5.30598 23.3913 5.7193 23.0865 6.02405C22.7818 6.3288 22.3685 6.5 21.9375 6.5H21.125V21.125C21.125 21.987 20.7826 22.8136 20.1731 23.4231C19.5636 24.0326 18.737 24.375 17.875 24.375H8.125C7.26305 24.375 6.4364 24.0326 5.8269 23.4231C5.21741 22.8136 4.875 21.987 4.875 21.125V6.5H4.0625C3.63152 6.5 3.2182 6.3288 2.91345 6.02405C2.6087 5.7193 2.4375 5.30598 2.4375 4.875V3.25C2.4375 2.81902 2.6087 2.4057 2.91345 2.10095C3.2182 1.7962 3.63152 1.625 4.0625 1.625H9.75C9.75 1.19402 9.92121 0.780698 10.226 0.475951C10.5307 0.171205 10.944 0 11.375 0L14.625 0C15.056 0 15.4693 0.171205 15.774 0.475951C16.0788 0.780698 16.25 1.19402 16.25 1.625H21.9375C22.3685 1.625 22.7818 1.7962 23.0865 2.10095C23.3913 2.4057 23.5625 2.81902 23.5625 3.25V4.875ZM6.69175 6.5L6.5 6.59587V21.125C6.5 21.556 6.67121 21.9693 6.97595 22.274C7.2807 22.5788 7.69402 22.75 8.125 22.75H17.875C18.306 22.75 18.7193 22.5788 19.024 22.274C19.3288 21.9693 19.5 21.556 19.5 21.125V6.59587L19.3083 6.5H6.69175ZM4.0625 4.875H21.9375V3.25H4.0625V4.875Z" fill="#D60505"/>
</svg>
