<svg width="22" height="22" viewBox="0 0 22 22" fill="none" xmlns="http://www.w3.org/2000/svg">
<path d="M4.7377 9.79756L2.4593 12.1644C1.52493 13.1351 1 14.4515 1 15.8242C1 17.1969 1.52493 18.5134 2.4593 19.4841C3.39367 20.4547 4.66095 21 5.98236 21C7.30376 21 8.57104 20.4547 9.50541 19.4841L12.5411 16.3288C13.1045 15.7434 13.5246 15.0262 13.766 14.2372C14.0073 13.4483 14.063 12.6107 13.9283 11.7948C13.7936 10.9789 13.4725 10.2084 12.9918 9.54812C12.5112 8.88782 11.8851 8.35692 11.1661 8L10.1929 9.01091C10.0941 9.1137 10.0082 9.22905 9.93718 9.35421C10.4927 9.52011 10.9969 9.83376 11.4 10.2641C11.8031 10.6945 12.0911 11.2267 12.2355 11.8081C12.3799 12.3896 12.3758 13.0001 12.2234 13.5793C12.0711 14.1586 11.7759 14.6865 11.367 15.1109L8.333 18.2644C7.70979 18.9118 6.86454 19.2755 5.98319 19.2755C5.10184 19.2755 4.25658 18.9118 3.63337 18.2644C3.01017 17.617 2.66005 16.7389 2.66005 15.8234C2.66005 14.9078 3.01017 14.0297 3.63337 13.3823L4.95027 12.0161C4.76394 11.2929 4.69215 10.5447 4.7377 9.79756Z" fill="#ACACAC"/>
<path d="M9.45892 4.67007C8.89548 5.25555 8.47543 5.97292 8.23405 6.76196C7.99267 7.551 7.93699 8.38869 8.07169 9.20471C8.20639 10.0207 8.52754 10.7913 9.00818 11.4517C9.48882 12.1121 10.1149 12.643 10.8339 13L12.1209 11.6611C11.5579 11.5042 11.0445 11.1961 10.6324 10.7678C10.2203 10.3394 9.92393 9.8059 9.77314 9.22086C9.62235 8.63581 9.62242 8.01984 9.77336 7.43483C9.9243 6.84983 10.2208 6.3164 10.633 5.88815L13.667 2.73424C14.2902 2.08675 15.1355 1.72299 16.0168 1.72299C16.8982 1.72299 17.7434 2.08675 18.3666 2.73424C18.9898 3.38172 19.3399 4.25991 19.3399 5.17559C19.3399 6.09128 18.9898 6.96946 18.3666 7.61694L17.0497 8.98341C17.2357 9.70805 17.3071 10.4586 17.2623 11.2039L19.5407 8.83676C20.4751 7.86598 21 6.54933 21 5.17645C21 3.80357 20.4751 2.48692 19.5407 1.51615C18.6063 0.545375 17.339 0 16.0176 0C14.6962 0 13.429 0.545375 12.4946 1.51615L9.45892 4.67007Z" fill="#ACACAC"/>
</svg>
