<svg width="23" height="26" viewBox="0 0 23 26" fill="none" xmlns="http://www.w3.org/2000/svg">
<path d="M1.79269 14.7011L0.652958 13.5738C0.170368 13.0965 0.170368 12.3246 0.652958 11.8523L10.6282 1.98044C11.1108 1.5031 11.8911 1.5031 12.3686 1.98044L22.3438 11.8472C22.8264 12.3246 22.8264 13.0965 22.3438 13.5687L21.2041 14.6961C20.7164 15.1785 19.9206 15.1683 19.4431 14.6758L13.5545 8.56169V23.1562C13.5545 23.8316 13.0052 24.375 12.3224 24.375H10.6795C9.99671 24.375 9.44738 23.8316 9.44738 23.1562V8.56169L3.55363 14.6808C3.07617 15.1785 2.28041 15.1886 1.79269 14.7011Z" fill="white"/>
</svg>
